<svg width="186" height="165" viewBox="0 0 186 165" fill="none" xmlns="http://www.w3.org/2000/svg">
<path d="M99.4079 92.7405H72.7009V125.13H99.4079V92.7405Z" fill="#DFC491" stroke="#EFD69E" stroke-width="0.165" stroke-linecap="round"/>
<path d="M72.6754 118.408L72.8672 96.0799L92.1078 107.41L72.6754 118.408Z" fill="#D4BD8E"/>
<path d="M85.7702 11.7673C76.4266 11.7673 67.4656 16.856 60.8586 25.9139C54.2517 34.9718 50.5399 47.2569 50.5398 60.0667C50.5398 66.4095 51.451 72.6903 53.2215 78.5503C54.992 84.4103 57.5871 89.7348 60.8585 94.2199C64.13 98.705 68.0137 102.263 72.2881 104.69C76.5624 107.117 81.1437 108.367 85.7702 108.367V11.7673Z" fill="#DFC491"/>
<path d="M85.6868 11.8115C95.0304 11.8115 103.991 16.9002 110.598 25.9581C117.205 35.0159 120.917 47.3011 120.917 60.1109C120.917 66.4537 120.006 72.7344 118.235 78.5945C116.465 84.4545 113.87 89.779 110.598 94.2641C107.327 98.7491 103.443 102.307 99.1689 104.734C94.8945 107.161 90.3133 108.411 85.6868 108.411V11.8115Z" fill="#EFD69E"/>
<path d="M55.9381 74.841C57.3589 71.6681 58.7795 68.4008 60.1998 65.1811C61.6201 61.9614 46.4202 54.9529 46.4202 54.9529L46.5622 61.3455L47.6987 59.0726L49.1193 58.0782L55.5119 64.3287L55.9381 70.2952L54.8016 73.8466L55.9381 74.841Z" fill="#020202" stroke="black" stroke-width="0.264583"/>
<path d="M51.9121 75.6726C54.3751 75.3625 55.8844 71.2409 55.2834 66.4666C54.6824 61.6923 52.1985 58.0734 49.7356 58.3834C47.2727 58.6935 45.7633 62.8151 46.3644 67.5894C46.9654 72.3637 49.4492 75.9826 51.9121 75.6726Z" fill="#DFC491" stroke="#DFC491" stroke-width="0.662004"/>
<path d="M116.597 72.8524L121.995 58.9306L120.432 53.3904L109.778 63.6186L114.04 69.7271L116.597 72.8524Z" fill="#020202" stroke="black" stroke-width="0.264583"/>
<path d="M58.8828 50.9039C71.2436 50.8939 95.9649 50.8749 108.325 50.8652C120.686 50.8552 120.686 50.8552 120.812 51.4539C120.938 52.0523 121.19 53.2492 121.017 54.4936C120.843 55.7379 120.245 57.0288 119.229 58.7227C118.212 60.4165 116.779 62.5114 114.695 64.2841C112.612 66.0567 109.881 67.5053 106.611 68.7087C103.341 69.9121 99.5346 70.8694 95.4721 71.4133C91.4095 71.9573 87.0928 72.0874 83.0103 71.973C78.9278 71.8586 75.0814 71.4995 71.0695 70.58C67.0576 69.6604 62.8817 68.1805 58.9677 66.0692C55.0537 63.958 51.4021 61.2156 49.3558 58.9937C47.3094 56.7719 46.8685 55.0712 46.4275 53.3703C46.459 52.5514 46.4905 51.7322 46.5063 51.3228C46.522 50.9135 46.522 50.9135 46.522 50.9135C46.522 50.9135 46.522 50.9135 58.8828 50.9035V50.9039Z" fill="#000049" stroke="#000049" stroke-width="0.264583"/>
<path d="M47.2169 49.4569C47.3586 47.3779 47.6421 43.2202 48.5083 39.0783C49.3745 34.9364 50.8235 30.8099 52.7449 27.3768C54.6662 23.9436 57.0603 21.2031 60.1562 18.8286C63.252 16.4541 67.0767 14.4311 71.2657 13.1398C75.4548 11.8484 80.0224 11.2814 84.6366 11.2972C89.2509 11.313 93.9129 11.9115 97.6925 12.9351C101.472 13.9588 104.37 15.4078 107.095 17.4078C109.819 19.4079 112.371 21.9593 114.423 25.3276C116.475 28.6959 118.009 32.826 118.922 37.3775C119.836 41.929 120.119 46.874 120.261 49.3467C120.403 51.8194 120.403 51.8194 108.179 51.7722C95.9557 51.7249 71.5181 51.6304 59.2966 51.5832C47.0751 51.536 47.0751 51.536 47.2169 49.4569Z" fill="#008066" stroke="#008066" stroke-width="0.264583"/>
<path d="M119.664 75.807C122.096 76.3003 124.844 72.8771 125.8 68.1611C126.756 63.4451 125.559 59.2221 123.126 58.7289C120.693 58.2356 117.946 61.6588 116.99 66.3748C116.034 71.0907 117.231 75.3137 119.664 75.807Z" fill="#EFD69E" stroke="#EFD69E" stroke-width="0.662004"/>
<path d="M55.1538 56.5701C58.276 58.9197 61.6978 60.8707 65.3101 62.3609C70.0976 64.3359 75.2194 65.4975 80.3905 65.7812" stroke="#595A5C" stroke-opacity="0.706522" stroke-width="2.165" stroke-linecap="round"/>
<path d="M97.8679 121.305C94.5385 122.307 90.4326 122.852 86.2045 122.853C82.4686 122.852 78.8173 122.426 75.71 121.628C74.6531 121.727 73.6341 121.833 72.6942 121.946C65.3279 122.833 62.08 124.072 58.263 125.947C54.446 127.822 50.0594 130.333 46.3092 133.715C42.559 137.097 39.4451 141.349 36.917 147.074C34.389 152.8 32.4472 159.999 31.677 164.118C31.6464 164.282 31.6223 164.432 31.5964 164.587H139.472C139.404 164.117 139.279 163.626 139.142 163.113C138.154 159.43 136.604 154.645 134.734 150.374C132.864 146.104 130.646 142.272 128.155 138.546C125.665 134.82 122.886 131.17 118.65 128.09C114.414 125.01 108.771 122.519 100.11 121.523C99.381 121.439 98.6309 121.368 97.8678 121.305H97.8679Z" fill="#47474A"/>
<path d="M68.1738 120.59C74.1226 123.226 80.6535 124.539 87.1589 124.407C92.8066 124.292 98.4302 123.092 103.633 120.891" stroke="#47474A" stroke-width="3.265"/>
<path d="M123.669 147.812H47.7288V164.687H123.669V147.812Z" fill="#008066"/>
<path d="M112.724 150.102C112.027 150.102 111.359 150.416 110.866 150.975C110.374 151.535 110.097 152.294 110.097 153.085C110.097 153.876 110.374 154.635 110.866 155.194C111.359 155.754 112.027 156.068 112.724 156.068C112.855 156.067 112.986 156.055 113.116 156.033H117.385C117.511 156.055 117.639 156.067 117.768 156.068C118.113 156.068 118.454 155.991 118.773 155.841C119.092 155.691 119.382 155.471 119.626 155.194C119.87 154.917 120.064 154.588 120.196 154.227C120.328 153.865 120.396 153.477 120.396 153.085C120.396 152.693 120.328 152.305 120.196 151.943C120.064 151.581 119.87 151.252 119.626 150.975C119.382 150.698 119.092 150.479 118.773 150.329C118.454 150.179 118.113 150.102 117.768 150.102C117.637 150.102 117.507 150.114 117.378 150.137H113.108C112.981 150.115 112.853 150.103 112.724 150.102Z" fill="#47474A"/>
<path d="M54.6866 150.742C53.9896 150.742 53.3213 151.057 52.8285 151.616C52.3357 152.176 52.0588 152.934 52.0588 153.725C52.0588 154.517 52.3357 155.275 52.8285 155.835C53.3212 156.394 53.9896 156.709 54.6866 156.709C54.8176 156.708 54.9484 156.696 55.0778 156.673H59.3468C59.4735 156.696 59.6015 156.707 59.7297 156.709C60.0748 156.709 60.4166 156.632 60.7355 156.482C61.0544 156.332 61.3441 156.112 61.5882 155.835C61.8322 155.558 62.0258 155.229 62.1579 154.867C62.29 154.505 62.358 154.117 62.358 153.725C62.358 153.334 62.29 152.946 62.1579 152.584C62.0258 152.222 61.8322 151.893 61.5882 151.616C61.3441 151.339 61.0544 151.119 60.7355 150.969C60.4166 150.819 60.0748 150.742 59.7297 150.742C59.5992 150.743 59.469 150.755 59.34 150.778H55.07C54.9432 150.755 54.815 150.743 54.6866 150.742Z" fill="#47474A"/>
<path d="M63.4527 123.849C61.4638 124.454 59.4844 125.245 57.574 126.201C55.3644 127.315 53.2779 128.635 51.3987 130.105V145.93H63.4527V123.849Z" fill="#008066"/>
<path d="M109.578 123.544C111.549 124.205 113.504 125.053 115.386 126.063C117.563 127.241 119.611 128.62 121.447 130.143L120.992 145.962L108.943 145.616L109.578 123.544Z" fill="#008066"/>
<path fill-rule="evenodd" clip-rule="evenodd" d="M136.866 54.2754L150.603 40.5387C150.603 40.5387 150.522 38.9647 152.839 36.6475C154.204 35.2821 155.487 35.6545 155.487 35.6545L156.894 34.2476L156.314 32.5925L154.99 31.1029L177.499 8.59412L181.016 5.73904L183.664 2.51156L182.915 1.76249L182.166 1.01343L178.939 3.66162L176.084 7.17875L153.575 29.6875L152.085 28.3634L150.43 27.7841L149.023 29.191C149.023 29.191 149.396 30.4737 148.03 31.8392C145.713 34.1563 144.139 34.0752 144.139 34.0752L130.402 47.8119C130.402 47.8119 129.368 49.9222 132.062 52.616C134.756 55.3099 136.866 54.2754 136.866 54.2754V54.2754Z" stroke="white" stroke-width="0.733789"/>
<path d="M144.327 1.26489C142.887 1.27024 141.459 1.52337 140.106 2.01318L149.416 11.333C149.984 11.9015 149.983 12.8167 149.414 13.3846L143.378 19.4142C142.81 19.982 141.895 19.9816 141.327 19.4132L132.275 10.3512C131.951 11.4746 131.786 12.6377 131.784 13.8068C131.784 15.4539 132.109 17.0848 132.739 18.6065C133.369 20.1282 134.293 21.5109 135.458 22.6756C136.622 23.8402 138.005 24.7641 139.527 25.3944C141.048 26.0247 142.679 26.3492 144.326 26.3492C145.439 26.348 146.547 26.1988 147.621 25.9053L174.152 52.3771C174.503 52.7276 174.979 52.872 175.434 52.8132C175.949 53.4546 176.601 53.9722 177.343 54.328C178.084 54.6838 178.896 54.8686 179.719 54.8689C181.177 54.8687 182.575 54.2895 183.606 53.2584C184.637 52.2274 185.216 50.8291 185.216 49.371C185.216 48.4669 184.992 47.5769 184.566 46.7798C184.139 45.9827 183.522 45.3032 182.77 44.8013C182.701 44.5569 182.571 44.326 182.377 44.1331L156.145 17.96C156.619 16.6263 156.863 15.2221 156.868 13.8068C156.868 10.4805 155.547 7.29042 153.195 4.93836C150.843 2.58631 147.653 1.26494 144.326 1.26492L144.327 1.26489ZM179.547 46.966C180.14 46.966 180.708 47.2013 181.127 47.6201C181.545 48.039 181.781 48.6071 181.781 49.1994C181.781 49.7918 181.545 50.3599 181.127 50.7787C180.708 51.1976 180.14 51.4329 179.547 51.4329C178.955 51.4329 178.387 51.1976 177.968 50.7787C177.549 50.3599 177.314 49.7918 177.314 49.1994C177.314 48.6071 177.549 48.039 177.968 47.6202C178.387 47.2013 178.955 46.966 179.547 46.966Z" fill="#47474A"/>
<path fill-rule="evenodd" clip-rule="evenodd" d="M136.522 56.3372L150.259 42.6005C150.259 42.6005 150.178 41.0265 152.495 38.7093C153.861 37.3438 155.143 37.7162 155.143 37.7162L156.55 36.3094L155.971 34.6543L154.647 33.1646L177.156 10.6559L180.673 7.80082L183.321 4.57333L182.572 3.82426L181.823 3.0752L178.595 5.72339L175.74 9.24052L153.232 31.7493L151.742 30.4252L150.087 29.8459L148.68 31.2527C148.68 31.2527 149.052 32.5355 147.687 33.9009C145.37 36.2181 143.796 36.137 143.796 36.137L130.059 49.8737C130.059 49.8737 129.025 51.984 131.718 54.6778C134.412 57.3716 136.522 56.3372 136.522 56.3372Z" fill="#008066" fill-opacity="0.956522" stroke="#EAECEE" stroke-width="0.231755"/>
<path d="M149.031 89.6917L144.374 91.0647L145.466 94.7689C143.842 95.7045 142.436 96.9745 141.34 98.4947L138.094 96.7279L135.773 100.993L139.261 102.892C138.974 103.98 138.828 105.1 138.825 106.226C138.831 106.863 138.882 107.5 138.98 108.13L135.127 109.438L136.689 114.036L140.543 112.727C141.453 114.333 142.689 115.73 144.172 116.83L142.264 120.357L146.534 122.668L148.533 118.973C149.679 119.289 150.861 119.45 152.05 119.45C152.592 119.446 153.134 119.409 153.672 119.338L154.91 123.218L159.536 121.741L158.301 117.874C159.868 117.034 161.248 115.887 162.361 114.501L165.783 116.308L168.051 112.015L164.643 110.215C165.056 108.925 165.27 107.58 165.275 106.226C165.273 105.75 165.246 105.275 165.193 104.802L168.743 103.69L167.29 99.057L163.786 100.156C162.905 98.4491 161.663 96.955 160.146 95.7771L161.852 92.6222L157.581 90.3128L155.825 93.5612C154.6 93.1928 153.328 93.0039 152.05 93.0005C151.382 93.0061 150.715 93.0622 150.056 93.1684L149.031 89.6917ZM152.579 99.9913C154.19 99.9913 155.735 100.631 156.874 101.771C158.013 102.91 158.653 104.455 158.653 106.066C158.653 107.677 158.013 109.222 156.874 110.361C155.735 111.5 154.19 112.14 152.579 112.14C150.968 112.14 149.423 111.5 148.284 110.361C147.144 109.222 146.504 107.677 146.504 106.066C146.504 105.268 146.661 104.478 146.967 103.741C147.272 103.004 147.719 102.334 148.283 101.77C148.847 101.206 149.517 100.759 150.254 100.454C150.991 100.148 151.781 99.9912 152.579 99.9913Z" fill="#47474A"/>
<path d="M18.8061 1V3.35082V11.0049L12.3084 14.832L5.81072 11.0049V3.35082V1.09961C4.03476 2.21215 2.57011 3.7571 1.55385 5.58986C0.537598 7.42262 0.00296687 9.48326 0 11.5789C0.000904399 13.8192 0.609364 16.0172 1.76059 17.9391C2.91181 19.8609 4.56269 21.4345 6.53745 22.4924V64.6512H6.54685C6.61321 66.1558 7.25735 67.5768 8.34515 68.6183C9.43295 69.6599 10.8806 70.2417 12.3866 70.2426C13.892 70.2408 15.3387 69.6585 16.4258 68.6171C17.5128 67.5756 18.1564 66.1552 18.2228 64.6512H18.2357V22.4857C20.2094 21.4283 21.8595 19.8557 23.0106 17.9352C24.1617 16.0146 24.7707 13.818 24.7727 11.5789C24.7703 9.45164 24.2201 7.36083 23.175 5.50795C22.13 3.65507 20.6254 2.10255 18.8061 1H18.8061ZM12.1958 62.6439C12.7635 62.6439 13.3079 62.8694 13.7093 63.2708C14.1108 63.6722 14.3363 64.2167 14.3363 64.7843C14.3363 65.0655 14.281 65.3438 14.1735 65.6036C14.0659 65.8633 13.9083 66.0993 13.7095 66.2981C13.5107 66.4969 13.2748 66.6546 13.0151 66.7622C12.7553 66.8698 12.477 66.9252 12.1958 66.9252C11.9147 66.9252 11.6364 66.8698 11.3766 66.7622C11.1169 66.6546 10.8809 66.4969 10.6822 66.2981C10.4834 66.0993 10.3258 65.8633 10.2182 65.6036C10.1107 65.3438 10.0554 65.0655 10.0554 64.7843C10.0554 64.2167 10.2809 63.6722 10.6824 63.2708C11.0838 62.8694 11.6282 62.6439 12.1958 62.6439Z" fill="#018068" fill-opacity="0.984314"/>
<path d="M80.1177 26.9761C80.1098 26.9764 80.1018 26.9767 80.0938 26.9771C80.0905 26.9769 80.0872 26.9768 80.0838 26.9767C79.3583 26.9772 78.6476 27.1814 78.0325 27.5661C77.4174 27.9508 76.9227 28.5005 76.6046 29.1525H80.4874C80.7783 29.1525 81.0125 29.3868 81.0125 29.6777V31.9708C81.0125 32.2618 80.7783 32.4958 80.4874 32.4958H76.5833C76.8768 33.1199 77.3315 33.6543 77.9006 34.0438C78.4696 34.4333 79.1323 34.6639 79.8203 34.7117C79.8657 34.7149 79.9112 34.7172 79.9568 34.7188C79.9991 34.7214 80.0414 34.7234 80.0838 34.7247C80.0924 34.7245 80.101 34.7243 80.1096 34.724C80.1123 34.7241 80.115 34.7242 80.1176 34.7243C80.1295 34.7237 80.1414 34.723 80.1533 34.7223C80.2368 34.7207 80.3202 34.7164 80.4034 34.7094C80.5136 34.7008 80.6233 34.6876 80.7323 34.6697C80.7371 34.669 80.7418 34.6684 80.7466 34.6677C80.876 34.6478 81.0043 34.6213 81.131 34.5884L87.8906 41.3328C87.7443 41.7448 87.6688 42.1786 87.6673 42.6157C87.6673 43.6432 88.0754 44.6285 88.8019 45.3551C89.5284 46.0816 90.5137 46.4898 91.5412 46.4898L91.5413 46.4897C91.5493 46.4893 91.5573 46.489 91.5652 46.4886C91.5686 46.4889 91.5719 46.4892 91.5752 46.4894C92.3007 46.4889 93.0115 46.2847 93.6266 45.9C94.2417 45.5153 94.7364 44.9657 95.0544 44.3136H91.1717C90.8808 44.3136 90.6465 44.0793 90.6465 43.7884V41.4953C90.6465 41.2044 90.8808 40.9703 91.1717 40.9703H95.0758C94.7823 40.3462 94.3275 39.8119 93.7585 39.4223C93.1894 39.0328 92.5267 38.8022 91.8388 38.7544C91.7933 38.7512 91.7478 38.7489 91.7023 38.7474C91.66 38.7447 91.6176 38.7427 91.5752 38.7414C91.5666 38.7416 91.558 38.7419 91.5493 38.7422C91.5467 38.742 91.544 38.7419 91.5413 38.7418C91.5294 38.7424 91.5175 38.7431 91.5056 38.7438C91.4221 38.7454 91.3387 38.7497 91.2555 38.7567C91.1454 38.7653 91.0357 38.7786 90.9267 38.7965C90.9219 38.7972 90.9171 38.7979 90.9124 38.7985C90.783 38.8185 90.6547 38.8449 90.528 38.8778L83.7684 32.1334C83.9147 31.7214 83.9902 31.2877 83.9917 30.8505C83.9917 29.8231 83.5836 28.8377 82.8571 28.1112C82.1306 27.3846 81.1452 26.9764 80.1178 26.9764L80.1177 26.9761Z" fill="#D9B328"/>
<path fill-rule="evenodd" clip-rule="evenodd" d="M77.0334 46.9975L82.0504 41.9806C82.0504 41.9806 82.0207 41.4057 82.867 40.5594C83.3657 40.0607 83.8342 40.1968 83.8342 40.1968L84.348 39.6829L84.1364 39.0785L83.6528 38.5344L91.8735 30.3138L93.158 29.2711L94.1252 28.0923L93.8516 27.8187L93.578 27.5452L92.3993 28.5123L91.3566 29.7969L83.1359 38.0175L82.5919 37.5339L81.9874 37.3223L81.4736 37.8362C81.4736 37.8362 81.6096 38.3046 81.1109 38.8033C80.2646 39.6496 79.6898 39.62 79.6898 39.62L74.6729 44.6369C74.6729 44.6369 74.2951 45.4076 75.2789 46.3915C76.2627 47.3753 77.0334 46.9975 77.0334 46.9975Z" fill="#D9B328"/>
</svg>
