<svg width="542" height="480" viewBox="0 0 542 480" fill="none" xmlns="http://www.w3.org/2000/svg">
<path d="M290.603 269.188H212.529V363.873H290.603V269.188Z" fill="#DFC491" stroke="#EFD69E" stroke-width="0.165" stroke-linecap="round"/>
<path d="M212.455 344.223L213.016 278.951L269.262 312.073L212.455 344.223Z" fill="#D4BD8E"/>
<path d="M250.736 32.4766C223.421 32.4766 197.225 47.3525 177.911 73.8317C158.597 100.311 147.746 136.225 147.745 173.672C147.745 192.214 150.409 210.575 155.585 227.706C160.761 244.837 168.347 260.402 177.911 273.513C187.474 286.625 198.828 297.025 211.323 304.121C223.818 311.217 237.211 314.869 250.736 314.869V32.4766Z" fill="#DFC491"/>
<path d="M250.492 32.606C277.807 32.606 304.003 47.4819 323.317 73.9611C342.632 100.44 353.482 136.354 353.483 173.801C353.483 192.344 350.819 210.704 345.643 227.835C340.467 244.966 332.881 260.531 323.318 273.643C313.754 286.754 302.4 297.155 289.905 304.25C277.41 311.346 264.017 314.998 250.492 314.998V32.606Z" fill="#EFD69E"/>
<path d="M163.526 216.863C167.679 207.587 171.832 198.036 175.984 188.623C180.136 179.211 135.702 158.723 135.702 158.723L136.117 177.411L139.439 170.766L143.592 167.859L162.28 186.132L163.526 203.574L160.204 213.956L163.526 216.863Z" fill="#020202" stroke="black" stroke-width="0.264583"/>
<path d="M151.757 219.293C158.957 218.387 163.369 206.338 161.612 192.381C159.855 178.424 152.594 167.845 145.394 168.751C138.194 169.657 133.782 181.706 135.539 195.663C137.296 209.62 144.557 220.199 151.757 219.293Z" fill="#DFC491" stroke="#DFC491" stroke-width="0.662004"/>
<path d="M340.852 211.049L356.633 170.351L352.065 154.155L320.918 184.055L333.377 201.912L340.852 211.049Z" fill="#020202" stroke="black" stroke-width="0.264583"/>
<path d="M172.135 146.886C208.27 146.857 280.538 146.802 316.672 146.773C352.806 146.744 352.806 146.744 353.175 148.494C353.543 150.243 354.28 153.742 353.773 157.38C353.267 161.018 351.518 164.792 348.546 169.743C345.575 174.695 341.384 180.819 335.294 186.001C329.203 191.183 321.219 195.418 311.66 198.936C302.101 202.454 290.974 205.252 279.098 206.842C267.221 208.432 254.602 208.813 242.668 208.478C230.733 208.144 219.489 207.094 207.761 204.406C196.033 201.718 183.825 197.392 172.383 191.22C160.941 185.048 150.266 177.031 144.284 170.536C138.302 164.04 137.013 159.069 135.724 154.097C135.816 151.702 135.908 149.308 135.954 148.111C136 146.914 136 146.914 136 146.914C136 146.914 136 146.914 172.135 146.885V146.886Z" fill="#000049" stroke="#000049" stroke-width="0.264583"/>
<path d="M138.031 142.656C138.446 136.579 139.274 124.424 141.807 112.316C144.339 100.208 148.575 88.1448 154.191 78.1085C159.808 68.0722 166.807 60.0607 175.857 53.1193C184.907 46.1778 196.088 40.264 208.334 36.489C220.58 32.714 233.933 31.0564 247.422 31.1025C260.911 31.1487 274.54 32.8982 285.589 35.8907C296.638 38.8832 305.11 43.1191 313.074 48.9659C321.039 54.8127 328.497 62.2715 334.498 72.1181C340.498 81.9648 344.98 94.0384 347.65 107.344C350.32 120.65 351.149 135.106 351.563 142.334C351.978 149.563 351.978 149.563 316.245 149.425C280.511 149.286 209.072 149.01 173.344 148.872C137.617 148.734 137.617 148.734 138.031 142.656Z" fill="#008066" stroke="#008066" stroke-width="0.264583"/>
<path d="M349.817 219.686C356.929 221.128 364.961 211.121 367.756 197.335C370.551 183.548 367.052 171.203 359.94 169.761C352.828 168.319 344.796 178.326 342.001 192.113C339.206 205.899 342.705 218.244 349.817 219.686Z" fill="#EFD69E" stroke="#EFD69E" stroke-width="0.662004"/>
<path d="M161.233 163.45C170.361 170.319 180.364 176.022 190.924 180.379C204.919 186.152 219.892 189.548 235.009 190.377" stroke="#595A5C" stroke-opacity="0.706522" stroke-width="2.165" stroke-linecap="round"/>
<path d="M286.101 352.692C276.368 355.623 264.365 357.216 252.005 357.218C241.084 357.215 230.41 355.968 221.326 353.637C218.237 353.927 215.258 354.235 212.51 354.566C190.976 357.159 181.481 360.782 170.323 366.263C159.164 371.744 146.341 379.085 135.378 388.971C124.415 398.857 115.312 411.287 107.921 428.025C100.531 444.763 94.8545 465.809 92.6029 477.849C92.5135 478.328 92.443 478.768 92.3673 479.219H407.723C407.524 477.846 407.161 476.411 406.759 474.912C403.871 464.145 399.34 450.157 393.873 437.672C388.406 425.188 381.922 413.987 374.642 403.095C367.362 392.202 359.236 381.533 346.854 372.528C334.472 363.522 317.974 356.242 292.654 353.33C290.525 353.085 288.332 352.876 286.101 352.692H286.101Z" fill="#47474A"/>
<path d="M199.295 350.601C216.686 358.308 235.778 362.147 254.795 361.76C271.305 361.424 287.745 357.915 302.954 351.482" stroke="#47474A" stroke-width="3.265"/>
<path d="M361.527 430.181H139.527V479.514H361.527V430.181Z" fill="#008066"/>
<path d="M329.532 436.875C327.494 436.875 325.54 437.794 324.1 439.43C322.659 441.065 321.85 443.283 321.85 445.596C321.85 447.909 322.659 450.127 324.1 451.762C325.54 453.398 327.494 454.317 329.532 454.317C329.915 454.315 330.297 454.28 330.675 454.213H343.155C343.525 454.279 343.9 454.313 344.275 454.317C345.283 454.317 346.283 454.092 347.215 453.653C348.147 453.215 348.994 452.573 349.707 451.763C350.421 450.953 350.987 449.992 351.373 448.933C351.759 447.875 351.958 446.741 351.958 445.596C351.958 444.451 351.759 443.316 351.373 442.258C350.987 441.2 350.421 440.239 349.707 439.429C348.994 438.619 348.147 437.977 347.215 437.539C346.283 437.1 345.283 436.875 344.275 436.875C343.893 436.877 343.512 436.912 343.135 436.979H330.653C330.282 436.913 329.907 436.878 329.532 436.875Z" fill="#47474A"/>
<path d="M159.867 438.747C157.83 438.747 155.876 439.666 154.435 441.302C152.995 442.937 152.185 445.155 152.185 447.468C152.185 449.781 152.995 451.999 154.435 453.635C155.876 455.27 157.83 456.189 159.867 456.189C160.25 456.187 160.632 456.152 161.011 456.085H173.49C173.861 456.151 174.235 456.186 174.61 456.189C175.619 456.189 176.618 455.964 177.55 455.526C178.482 455.087 179.329 454.445 180.043 453.635C180.756 452.825 181.322 451.864 181.708 450.806C182.094 449.748 182.293 448.613 182.293 447.468C182.293 446.323 182.094 445.189 181.708 444.131C181.322 443.072 180.756 442.111 180.043 441.301C179.329 440.491 178.482 439.849 177.55 439.411C176.618 438.972 175.619 438.747 174.61 438.747C174.228 438.75 173.848 438.785 173.471 438.851H160.988C160.617 438.786 160.243 438.751 159.867 438.747Z" fill="#47474A"/>
<path d="M185.494 360.13C179.679 361.897 173.893 364.211 168.308 367.004C161.849 370.263 155.749 374.119 150.256 378.417V424.68H185.494V360.13Z" fill="#008066"/>
<path d="M320.333 359.238C326.094 361.171 331.812 363.651 337.314 366.603C343.677 370.046 349.663 374.076 355.031 378.53L353.701 424.774L318.478 423.761L320.333 359.238Z" fill="#008066"/>
<path fill-rule="evenodd" clip-rule="evenodd" d="M400.106 156.742L440.263 116.585C440.263 116.585 440.026 111.984 446.8 105.21C450.791 101.218 454.541 102.307 454.541 102.307L458.654 98.1943L456.96 93.3558L453.09 89.0012L518.89 23.2005L529.172 14.8541L536.914 5.41909L534.724 3.22932L532.534 1.03955L523.099 8.78112L514.753 19.0629L448.952 84.8636L444.597 80.9928L439.759 79.2993L435.646 83.412C435.646 83.412 436.735 87.1619 432.743 91.1536C425.969 97.9275 421.368 97.6904 421.368 97.6904L381.211 137.847C381.211 137.847 378.187 144.017 386.062 151.891C393.937 159.766 400.106 156.742 400.106 156.742V156.742Z" stroke="white" stroke-width="0.733789"/>
<path d="M421.916 1.77466C417.708 1.7903 413.534 2.53027 409.577 3.96214L436.794 31.2072C438.455 32.869 438.452 35.5445 436.789 37.2045L419.142 54.8311C417.481 56.4912 414.807 56.49 413.147 54.8282L386.684 28.337C385.738 31.621 385.255 35.0212 385.25 38.4389C385.25 43.2538 386.198 48.0216 388.041 52.4701C389.883 56.9185 392.584 60.9605 395.989 64.3653C399.393 67.77 403.435 70.4708 407.883 72.3135C412.332 74.1561 417.1 75.1045 421.914 75.1045C425.168 75.1012 428.407 74.6648 431.545 73.8069L509.105 151.193C510.132 152.217 511.523 152.64 512.853 152.468C514.358 154.343 516.265 155.856 518.433 156.896C520.601 157.936 522.975 158.476 525.379 158.477C529.642 158.477 533.729 156.783 536.743 153.769C539.757 150.755 541.45 146.668 541.45 142.405C541.448 139.762 540.795 137.16 539.548 134.83C538.301 132.5 536.498 130.513 534.3 129.046C534.097 128.332 533.715 127.657 533.15 127.093L456.465 50.5802C457.85 46.6814 458.564 42.5763 458.579 38.4389C458.579 28.715 454.716 19.3893 447.84 12.5135C440.964 5.6376 431.638 1.77478 421.914 1.77475L421.916 1.77466ZM524.877 135.374C526.609 135.374 528.27 136.062 529.494 137.287C530.719 138.511 531.407 140.172 531.407 141.904C531.407 143.635 530.719 145.296 529.494 146.52C528.27 147.745 526.609 148.433 524.877 148.433C523.146 148.433 521.485 147.745 520.261 146.52C519.036 145.296 518.348 143.635 518.348 141.904C518.348 140.172 519.036 138.511 520.261 137.287C521.485 136.062 523.146 135.374 524.877 135.374Z" fill="#47474A"/>
<path fill-rule="evenodd" clip-rule="evenodd" d="M399.101 162.77L439.258 122.613C439.258 122.613 439.021 118.011 445.795 111.237C449.787 107.246 453.537 108.334 453.537 108.334L457.65 104.222L455.956 99.3832L452.085 95.0286L517.886 29.2279L528.168 20.8815L535.909 11.4464L533.72 9.25668L531.53 7.06689L522.095 14.8085L513.748 25.0902L447.948 90.8909L443.593 87.0202L438.755 85.3267L434.642 89.4394C434.642 89.4394 435.73 93.1892 431.739 97.181C424.965 103.955 420.363 103.718 420.363 103.718L380.206 143.875C380.206 143.875 377.182 150.044 385.057 157.919C392.932 165.794 399.101 162.77 399.101 162.77Z" fill="#008066" fill-opacity="0.956522" stroke="#EAECEE" stroke-width="0.231755"/>
<path d="M435.669 260.276L422.055 264.29L425.247 275.118C420.5 277.853 416.389 281.566 413.186 286.01L403.697 280.845L396.91 293.313L407.107 298.865C406.269 302.046 405.841 305.321 405.833 308.61C405.849 310.474 406 312.335 406.285 314.177L395.023 318.002L399.59 331.442L410.855 327.616C413.515 332.31 417.129 336.396 421.464 339.609L415.885 349.922L428.369 356.677L434.213 345.875C437.561 346.8 441.019 347.269 444.493 347.27C446.079 347.258 447.663 347.149 449.236 346.943L452.856 358.284L466.378 353.968L462.769 342.662C467.347 340.206 471.384 336.853 474.637 332.802L484.641 338.085L491.269 325.534L481.307 320.272C482.516 316.502 483.139 312.569 483.154 308.61C483.149 307.22 483.07 305.831 482.915 304.45L493.292 301.197L489.046 287.654L478.803 290.866C476.228 285.877 472.597 281.509 468.162 278.066L473.149 268.843L460.663 262.092L455.528 271.588C451.948 270.511 448.231 269.959 444.493 269.949C442.541 269.965 440.592 270.129 438.665 270.44L435.669 260.276ZM446.04 290.385C450.749 290.385 455.266 292.256 458.596 295.587C461.926 298.917 463.797 303.434 463.796 308.143C463.796 312.852 461.925 317.369 458.595 320.699C455.265 324.029 450.749 325.899 446.04 325.9C441.33 325.9 436.814 324.029 433.483 320.699C430.153 317.369 428.282 312.853 428.282 308.143C428.282 305.811 428.741 303.502 429.633 301.347C430.526 299.193 431.834 297.235 433.483 295.586C435.132 293.937 437.089 292.629 439.244 291.737C441.399 290.844 443.708 290.385 446.04 290.385Z" fill="#47474A"/>
<path d="M54.9766 1V7.87225V30.2478L35.9817 41.4356L16.9867 30.2478V7.87225V1.29119C11.795 4.54352 7.51329 9.05994 4.54244 14.4177C1.57158 19.7755 0.00867317 25.7994 0 31.9257C0.00264387 38.4748 1.78138 44.9005 5.14679 50.5186C8.51221 56.1367 13.3383 60.737 19.1112 63.8295V187.074H19.1387C19.3326 191.472 21.2157 195.626 24.3957 198.671C27.5757 201.716 31.8076 203.417 36.2102 203.42C40.611 203.414 44.8403 201.712 48.0181 198.668C51.1959 195.623 53.0774 191.471 53.2713 187.074H53.3092V63.8099C59.0789 60.7188 63.9028 56.1216 67.2678 50.5072C70.6328 44.8928 72.413 38.4713 72.4191 31.9257C72.412 25.707 70.8035 19.5949 67.7485 14.1783C64.6935 8.76166 60.2949 4.22314 54.9767 1H54.9766ZM35.6526 181.206C37.3121 181.206 38.9036 181.865 40.0771 183.039C41.2505 184.212 41.9098 185.804 41.9098 187.463C41.91 188.285 41.7482 189.099 41.4339 189.858C41.1195 190.617 40.6586 191.307 40.0775 191.889C39.4965 192.47 38.8067 192.931 38.0474 193.245C37.2882 193.56 36.4744 193.722 35.6526 193.722C34.8308 193.722 34.017 193.56 33.2578 193.245C32.4985 192.931 31.8087 192.47 31.2276 191.889C30.6466 191.307 30.1857 190.617 29.8713 189.858C29.557 189.099 29.3952 188.285 29.3954 187.463C29.3954 185.804 30.0547 184.212 31.2281 183.039C32.4016 181.865 33.9931 181.206 35.6526 181.206Z" fill="#018068" fill-opacity="0.984314"/>
<path d="M234.212 76.9368C234.188 76.9377 234.165 76.9386 234.142 76.9397C234.132 76.9393 234.122 76.9389 234.113 76.9386C231.992 76.9401 229.914 77.5371 228.116 78.6617C226.318 79.7862 224.872 81.393 223.942 83.2992H235.292C236.143 83.2992 236.828 83.9841 236.828 84.8345V91.5382C236.828 92.3886 236.143 93.0729 235.292 93.0729H223.879C224.737 94.8972 226.067 96.4593 227.73 97.5981C229.394 98.7369 231.331 99.411 233.342 99.5508C233.475 99.5599 233.608 99.5668 233.741 99.5712C233.865 99.5791 233.989 99.5849 234.113 99.5888C234.138 99.5881 234.163 99.5873 234.188 99.5865C234.196 99.5868 234.204 99.5871 234.211 99.5874C234.246 99.5856 234.281 99.5836 234.316 99.5815C234.56 99.5768 234.804 99.5643 235.047 99.5438C235.369 99.5189 235.69 99.4801 236.008 99.4278C236.022 99.4259 236.036 99.4239 236.05 99.4219C236.428 99.3637 236.803 99.2863 237.174 99.1901L256.934 118.906C256.507 120.111 256.286 121.379 256.282 122.657C256.282 125.66 257.475 128.541 259.599 130.665C261.722 132.789 264.603 133.982 267.606 133.982L267.607 133.982C267.63 133.981 267.653 133.98 267.677 133.979C267.686 133.979 267.696 133.98 267.706 133.981C269.827 133.979 271.905 133.382 273.703 132.258C275.501 131.133 276.947 129.526 277.877 127.62H266.526C265.676 127.62 264.991 126.935 264.991 126.085V119.381C264.991 118.531 265.676 117.847 266.526 117.847H277.939C277.081 116.022 275.752 114.46 274.088 113.321C272.425 112.183 270.487 111.509 268.476 111.369C268.344 111.36 268.21 111.353 268.077 111.348C267.954 111.34 267.83 111.335 267.706 111.331C267.681 111.331 267.656 111.332 267.63 111.333C267.622 111.333 267.615 111.332 267.607 111.332C267.572 111.334 267.537 111.336 267.503 111.338C267.258 111.343 267.015 111.355 266.771 111.376C266.449 111.401 266.129 111.44 265.81 111.492C265.796 111.494 265.782 111.496 265.768 111.498C265.39 111.556 265.015 111.633 264.645 111.73L244.884 92.0134C245.312 90.809 245.532 89.541 245.537 88.263C245.537 85.2594 244.344 82.3789 242.22 80.255C240.096 78.1311 237.215 76.9378 234.212 76.9377L234.212 76.9368Z" fill="#D9B328"/>
<path fill-rule="evenodd" clip-rule="evenodd" d="M225.195 135.466L239.861 120.8C239.861 120.8 239.775 119.119 242.249 116.645C243.707 115.188 245.076 115.585 245.076 115.585L246.578 114.083L245.96 112.316L244.546 110.726L268.578 86.694L272.333 83.6457L275.16 80.1998L274.36 79.4001L273.561 78.6003L270.115 81.4277L267.067 85.1828L243.035 109.215L241.444 107.801L239.677 107.182L238.175 108.684C238.175 108.684 238.573 110.054 237.115 111.512C234.641 113.986 232.961 113.899 232.961 113.899L218.294 128.565C218.294 128.565 217.19 130.818 220.066 133.694C222.942 136.571 225.195 135.466 225.195 135.466Z" fill="#D9B328"/>
</svg>
